<svg width="36" height="36" viewBox="0 0 36 36" fill="none" xmlns="http://www.w3.org/2000/svg">
<g id="fever 1">
<g id="Group">
<path id="Vector" d="M4.71539 24.7179C3.37053 25.2714 1.56982 27.0129 1.56982 29.597V34.8505C1.56982 35.4853 2.08437 35.9999 2.71915 35.9999H5.95029L7.87271 34.0564V23.4849L4.71539 24.7179Z" fill="#6B7ED9"/>
<g id="Group_2">
<path id="Vector_2" d="M33.5048 17.7686H31.4798C31.1797 17.7686 30.9365 17.5254 30.9365 17.2254C30.9365 16.9253 31.1797 16.6821 31.4798 16.6821H33.5048C33.8049 16.6821 34.0481 16.9253 34.0481 17.2254C34.0481 17.5254 33.8049 17.7686 33.5048 17.7686Z" fill="#00D2FC"/>
</g>
<g id="Group_3">
<path id="Vector_3" d="M33.5048 20.7032H31.4798C31.1797 20.7032 30.9365 20.46 30.9365 20.1599C30.9365 19.8599 31.1797 19.6167 31.4798 19.6167H33.5048C33.8049 19.6167 34.0481 19.8599 34.0481 20.1599C34.0481 20.4599 33.8049 20.7032 33.5048 20.7032Z" fill="#00D2FC"/>
</g>
<g id="Group_4">
<path id="Vector_4" d="M33.5048 26.5723H31.4798C31.1797 26.5723 30.9365 26.3291 30.9365 26.0291C30.9365 25.7291 31.1797 25.4858 31.4798 25.4858H33.5048C33.8049 25.4858 34.0481 25.7291 34.0481 26.0291C34.0481 26.3291 33.8049 26.5723 33.5048 26.5723Z" fill="#00D2FC"/>
</g>
<g id="Group_5">
<path id="Vector_5" d="M33.5048 23.6377H31.4798C31.1797 23.6377 30.9365 23.3945 30.9365 23.0945C30.9365 22.7945 31.1797 22.5513 31.4798 22.5513H33.5048C33.8049 22.5513 34.0481 22.7945 34.0481 23.0945C34.0481 23.3945 33.8049 23.6377 33.5048 23.6377Z" fill="#00D2FC"/>
</g>
<path id="Vector_6" d="M28.1455 24.718C27.894 24.6206 24.7668 23.4095 22.4626 22.5171L19.2862 25.8264H13.2258L10.3894 22.502L7.87261 23.4849C6.86215 24.346 5.9502 25.7575 5.9502 27.5963V36H30.1133L28.1455 24.718Z" fill="#8896E0"/>
<path id="Vector_7" d="M20.0181 21.5705C19.7952 21.4843 19.6471 21.2698 19.6465 21.0296L19.6449 19.1179L19.2741 18.7036H15.9834V25.8264L16.4259 26.7309H18.1217C19.3024 26.7309 20.3935 26.101 20.9838 25.0784L22.4626 22.5172C21.1816 22.021 20.1548 21.6234 20.0181 21.5705Z" fill="#FFB1A0"/>
<path id="Vector_8" d="M16.4258 18.7036H13.5441L13.2106 19.1093V21.026C13.2106 21.2657 13.0953 21.4068 12.9627 21.4968L10.3892 22.502L11.8767 25.0784C12.467 26.101 13.5581 26.7309 14.7388 26.7309H16.4258V18.7036H16.4258Z" fill="#F79480"/>
<path id="Vector_9" d="M23.7398 9.38818H21.6426V13.0052L22.2495 13.5889H23.3886C24.5573 13.5889 25.5048 12.6415 25.5048 11.4727C25.5048 10.424 24.741 9.55581 23.7398 9.38818Z" fill="#FFB1A0"/>
<path id="Vector_10" d="M8.56505 9.56348C7.85109 9.90351 7.35645 10.6295 7.35645 11.4729C7.35645 12.6415 8.30384 13.589 9.47257 13.589H10.6117L11.4851 12.957C11.4851 12.5817 11.4851 9.92066 11.4851 9.56348H8.56505Z" fill="#F79480"/>
<path id="Vector_11" d="M21.073 7.37939L13.7899 10.2022L13.4077 10.9332V18.9617L16.4236 20.0495C19.6084 20.0907 22.2493 17.5294 22.2493 14.3158V10.1567L21.073 7.37939Z" fill="#FFCEBE"/>
<path id="Vector_12" d="M13.7898 15.234V9.56348C12.8159 9.56348 11.9236 9.56348 11.4632 9.56348L10.6113 10.2023V14.3159C10.6113 17.2882 12.9212 20.0035 16.4236 20.0496C14.7714 18.9981 13.7898 17.1708 13.7898 15.234Z" fill="#FFB1A0"/>
<path id="Vector_13" d="M6.9644 36.0001V28.8909C6.9644 28.5909 6.72119 28.3477 6.42116 28.3477C6.12114 28.3477 5.87793 28.5909 5.87793 28.8909V36.0001H6.9644Z" fill="#4D66D2"/>
<g id="Group_6">
<path id="Vector_14" d="M13.5352 10.2024H9.89468C8.95263 10.2024 8.18896 9.43882 8.18896 8.49677V4.05091C8.18896 1.81371 10.0027 0 12.2399 0H15.8805L13.79 2.25738L13.5352 10.2024Z" fill="#704444"/>
</g>
<path id="Vector_15" d="M31.058 13.9961H29.9355V20.4811L32.2715 20.1602V16.0449C32.2714 15.1617 31.7811 14.3931 31.058 13.9961Z" fill="#C9F0FE"/>
<path id="Vector_16" d="M30.2314 20.4811V15.8312C30.2314 15.1007 30.5512 14.4453 31.058 13.9961C30.7249 13.8132 30.3424 13.709 29.9355 13.709C28.6454 13.709 27.5996 14.7548 27.5996 16.0449V20.1602L28.1236 20.4811H30.2314Z" fill="#9BE8FD"/>
<path id="Vector_17" d="M32.736 27.9891C32.4382 27.7516 32.2715 27.386 32.2715 27.005V20.1602H30.1135L27.7842 31.9394L28.006 35.1764L31.2528 35.8026C33.0924 35.2394 34.4306 33.5292 34.4306 31.5051C34.4306 30.0815 33.7688 28.8126 32.736 27.9891Z" fill="#F78B98"/>
<path id="Vector_18" d="M27.9877 31.6487C27.9414 30.1649 28.7015 30.6099 29.7716 29.7305C30.064 29.4901 30.2313 29.1294 30.2313 28.751V20.1602H27.5995V27.0054C27.5995 27.3955 27.418 27.7606 27.1143 28.0056C26.059 28.8574 25.3968 30.1767 25.4427 31.6487C25.5153 33.9789 27.3943 35.8881 29.7232 35.9952C30.2575 36.0197 30.7719 35.9497 31.2527 35.8026C29.4591 35.2503 28.0484 33.5971 27.9877 31.6487Z" fill="#F27182"/>
<g id="Group_7">
<path id="Vector_19" d="M17.1903 16.7631C17.129 16.7631 17.0666 16.7526 17.0056 16.7306C16.6373 16.5974 16.2239 16.5974 15.8557 16.7306C15.5734 16.8326 15.2621 16.6866 15.16 16.4045C15.0579 16.1224 15.2039 15.811 15.486 15.7089C16.092 15.4896 16.7692 15.4896 17.3751 15.7089C17.6573 15.811 17.8033 16.1224 17.7012 16.4045C17.6212 16.6257 17.4126 16.7631 17.1903 16.7631Z" fill="#F79480"/>
</g>
<g id="Group_8">
<path id="Vector_20" d="M19.831 13.2343C19.7696 13.2343 19.7072 13.2238 19.6462 13.2018C19.2779 13.0685 18.8644 13.0686 18.4963 13.2018C18.2141 13.3037 17.9027 13.1579 17.8006 12.8757C17.6985 12.5936 17.8445 12.2821 18.1267 12.1801C18.7325 11.9608 19.4099 11.9608 20.0158 12.1801C20.298 12.2821 20.444 12.5936 20.3419 12.8757C20.2619 13.0968 20.0533 13.2343 19.831 13.2343Z" fill="#F79480"/>
</g>
<g id="Group_9">
<path id="Vector_21" d="M14.5497 13.2343C14.4883 13.2343 14.426 13.2238 14.3649 13.2018C13.9967 13.0686 13.5833 13.0686 13.215 13.2018C12.9329 13.3038 12.6215 13.1578 12.5194 12.8757C12.4173 12.5936 12.5633 12.2821 12.8454 12.1801C13.4514 11.9608 14.1286 11.9608 14.7345 12.1801C15.0167 12.2821 15.1626 12.5936 15.0605 12.8757C14.9806 13.0968 14.772 13.2343 14.5497 13.2343Z" fill="#F79480"/>
</g>
<g id="Group_10">
<path id="Vector_22" d="M29.9353 31.1917C29.6353 31.1917 29.3921 30.9485 29.3921 30.6485V16.2058C29.3921 15.9058 29.6353 15.6626 29.9353 15.6626C30.2353 15.6626 30.4786 15.9058 30.4786 16.2058V30.6485C30.4786 30.9485 30.2353 31.1917 29.9353 31.1917Z" fill="#E63850"/>
</g>
<path id="Vector_23" d="M29.9356 33.4928C31.0335 33.4928 31.9235 32.6028 31.9235 31.505C31.9235 30.4071 31.0335 29.5171 29.9356 29.5171C28.8378 29.5171 27.9478 30.4071 27.9478 31.505C27.9478 32.6028 28.8378 33.4928 29.9356 33.4928Z" fill="#E63850"/>
<path id="Vector_24" d="M21.8768 2.65191C21.3287 2.69409 20.8259 2.34956 20.7204 1.81005C20.5427 0.901547 20.0929 0 18.3359 0C18.2275 0 17.1794 0 15.8805 0C13.6432 0 11.8296 1.81371 11.8296 4.05091V8.4967C11.8296 9.43875 12.5933 10.2023 13.5353 10.2023H16.8134C18.3609 10.2023 19.7049 9.3342 20.3869 8.05866C20.4398 7.9598 20.5898 7.9984 20.5898 8.11048C20.5898 9.261 21.5312 10.2023 22.6817 10.2023C23.2848 10.2023 23.7781 9.70896 23.7781 9.10589C23.7781 8.1784 23.7781 5.39205 23.7781 4.46646C23.7781 3.37352 22.8245 2.57913 21.8768 2.65191Z" fill="#865151"/>
</g>
</g>
</svg>
